<svg xmlns="http://www.w3.org/2000/svg" width="55" height="49" viewBox="0 0 55 49"><path fill-rule="evenodd" fill="#FCDC08" d="M20.205 4.718L1.779 36.077c-3.374 5.741.843 12.917 7.589 12.917h36.854c6.746 0 10.963-7.176 7.59-12.917L35.385 4.718c-3.373-5.74-11.806-5.74-15.18 0z"/><path fill-rule="evenodd" fill="#47392D" d="M29.884 28.883c-.045.676-.552 1.199-1.16 1.199h-1.486c-.609 0-1.115-.523-1.161-1.199l-.962-11.946c-.051-.753.483-1.395 1.161-1.395h3.41c.678 0 1.212.642 1.161 1.395l-.963 11.946zm-3.042 5.089h2.277c.827 0 1.497.775 1.497 1.73v2.63c0 .955-.67 1.73-1.497 1.73h-2.277c-.826 0-1.497-.775-1.497-1.73v-2.63c0-.955.671-1.73 1.497-1.73z"/></svg>